<svg xmlns="http://www.w3.org/2000/svg" width="782.72247mm" height="200mm" viewBox="0 0 782.72247 200"><path d="M0 0h9.313v-2.625H4.356v-2.186h4.538v-2.625H4.356v-2.37h5.029v-2.624H0Z" style="fill:#221e1f;fill-opacity:1;fill-rule:nonzero;stroke:none" transform="matrix(6.90062 0 0 -6.90062 213.1 109.971)"/><path d="M0 0h4.355v-9.313h4.884v-3.117H0Z" style="fill:#221e1f;fill-opacity:1;fill-rule:nonzero;stroke:none" transform="matrix(6.90062 0 0 -6.90062 293.092 109.971)"/><path d="M0 0h4.355v-9.313H9.24v-3.117H0Z" style="fill:#221e1f;fill-opacity:1;fill-rule:nonzero;stroke:none" transform="matrix(6.90062 0 0 -6.90062 366.397 109.971)"/><path d="M0 0h-10.36v-.922h4.667v-11.629h1.088V-.922H.062V0Z" style="fill:#221e1f;fill-opacity:1;fill-rule:nonzero;stroke:none" transform="matrix(6.90062 0 0 -6.90062 496.498 109.554)"/><path d="M0 0h1.96c2.047 0 3.221-.863 3.221-2.365 0-1.535-1.131-2.381-3.184-2.381H0Zm5.619-7.234c-.588.884-1.059 1.521-1.603 1.848 1.536.593 2.324 1.612 2.324 3.04 0 .981-.407 3.268-4.179 3.268H-1.088v-12.551H0v5.959h1.615c1.488 0 1.945-.216 3.412-2.523l2.168-3.408 1.182-.028h.11z" style="fill:#221e1f;fill-opacity:1;fill-rule:nonzero;stroke:none" transform="matrix(6.90062 0 0 -6.90062 515.218 115.915)"/><path d="M0 0h-1.027v-12.551H.062V0Z" style="fill:#221e1f;fill-opacity:1;fill-rule:nonzero;stroke:none" transform="matrix(6.90062 0 0 -6.90062 590.29 109.554)"/><path d="M0 0c-3.082 0-5.496 2.385-5.496 5.426 0 3.043 2.414 5.425 5.496 5.425 3.064 0 5.461-2.382 5.461-5.425C5.461 2.385 3.064 0 0 0m-.034 11.864c-3.715 0-6.625-2.827-6.625-6.438 0-3.612 2.91-6.44 6.625-6.44 3.732 0 6.656 2.828 6.656 6.44 0 3.611-2.924 6.438-6.656 6.438" style="fill:#221e1f;fill-opacity:1;fill-rule:nonzero;stroke:none" transform="matrix(6.90062 0 0 -6.90062 647.153 190.298)"/><path d="M0 0h-1.025v-10.76L-10.34-.021l-.867.021h-.062v-12.551h1.088V-1.79l9.335-10.739.846-.022h.062V0Z" style="fill:#221e1f;fill-opacity:1;fill-rule:nonzero;stroke:none" transform="matrix(6.90062 0 0 -6.90062 782.295 109.554)"/><path d="M0 0a2.68 2.68 0 0 0-2.678 2.679A2.68 2.68 0 0 0 0 5.355a2.68 2.68 0 0 0 2.25-1.228h4.333C5.917 7.149 3.219 9.422 0 9.422a6.75 6.75 0 0 1-6.743-6.743A6.751 6.751 0 0 1 0-4.065c3.373 0 6.166 2.491 6.657 5.727H2.476A2.676 2.676 0 0 0 0 0" style="fill:#221e1f;fill-opacity:1;fill-rule:nonzero;stroke:none" transform="matrix(6.90062 0 0 -6.90062 154.145 171.949)"/><path d="M0 0a3.806 3.806 0 1 0 .002 7.612A3.806 3.806 0 0 0 0 0m0 10.414A6.607 6.607 0 0 1 0-2.8a6.608 6.608 0 1 1 0 13.214" style="fill:#50b848;fill-opacity:1;fill-rule:nonzero;stroke:none" transform="matrix(6.90062 0 0 -6.90062 153.111 71.863)"/><path d="M0 0a6.608 6.608 0 1 1 13.216 0A6.608 6.608 0 0 1 0 0" style="fill:#50b848;fill-opacity:1;fill-rule:nonzero;stroke:none" transform="matrix(6.90062 0 0 -6.90062 0 152.413)"/><path d="M0 0a5.59 5.59 0 0 0-5.584 5.586A5.59 5.59 0 0 0 0 11.172a5.593 5.593 0 0 0 5.587-5.586A5.593 5.593 0 0 0 0 0m0 12.188a6.61 6.61 0 0 1-6.602-6.602A6.61 6.61 0 0 1 0-1.016a6.608 6.608 0 0 1 6.601 6.602A6.608 6.608 0 0 1 0 12.188" style="fill:#50b848;fill-opacity:1;fill-rule:nonzero;stroke:none" transform="matrix(6.90062 0 0 -6.90062 45.821 84.242)"/></svg>